<svg xmlns="http://www.w3.org/2000/svg" xmlns:xlink="http://www.w3.org/1999/xlink" width="50px" height="50px">
<path fill-rule="evenodd" opacity="0" fill="#434343" d="M0.000,-0.000 L50.000,-0.000 L50.000,50.000 L0.000,50.000 L0.000,-0.000 Z"></path>
<path fill-rule="evenodd" fill="#434343" d="M33.099,41.009 L17.898,41.009 C16.848,41.009 15.998,40.142 15.998,39.071 L15.998,11.934 C15.998,10.864 16.848,9.996 17.898,9.996 L33.099,9.996 C34.149,9.996 34.999,10.864 34.999,11.934 L34.999,39.071 C34.999,40.142 34.149,41.009 33.099,41.009 ZM25.499,40.040 C26.285,40.040 26.924,39.389 26.924,38.587 C26.924,37.784 26.285,37.132 25.499,37.132 C24.712,37.132 24.074,37.784 24.074,38.587 C24.074,39.389 24.712,40.040 25.499,40.040 ZM33.099,14.842 L17.898,14.842 L17.898,35.218 L33.099,35.218 L33.099,14.842 ZM20.169,25.784 L20.455,25.583 L20.455,25.584 C20.456,25.578 20.457,25.571 20.458,25.564 L20.721,23.849 C20.828,23.145 21.403,22.515 22.257,22.524 C22.961,22.532 23.499,23.035 23.492,23.743 C23.484,24.531 22.669,25.094 22.280,25.362 L21.340,26.011 C21.340,26.011 21.380,26.357 21.707,26.360 C22.335,26.367 22.756,25.875 22.902,25.722 C22.902,25.722 23.892,24.595 24.001,24.469 C24.126,24.327 24.194,24.214 24.240,23.883 C24.347,23.105 25.047,22.553 25.766,22.560 C26.059,22.563 26.269,22.666 26.269,22.666 L26.446,21.390 C26.480,21.145 26.704,20.973 26.947,21.008 C27.190,21.043 27.359,21.270 27.325,21.515 L26.788,25.402 L27.709,24.478 C27.837,24.349 27.880,24.284 27.947,23.920 C28.064,23.286 28.547,22.588 29.418,22.597 C30.190,22.605 30.768,23.241 30.654,24.057 L30.408,25.823 C30.624,25.754 30.861,25.860 30.952,26.074 C31.048,26.303 30.944,26.566 30.718,26.665 L29.458,27.211 C29.268,27.293 29.064,27.337 28.857,27.335 C28.563,27.332 28.350,27.226 28.350,27.226 L28.157,28.617 C28.123,28.863 27.899,29.034 27.656,29.000 C27.413,28.965 27.244,28.739 27.279,28.493 L27.662,25.734 L27.022,26.342 C26.256,27.039 25.972,27.302 25.164,27.295 C24.473,27.287 23.845,26.767 23.978,25.796 L23.502,26.339 C23.268,26.605 22.684,27.269 21.663,27.259 C21.109,27.254 20.731,26.994 20.551,26.576 C20.512,26.586 20.472,26.593 20.433,26.593 C20.299,26.592 20.169,26.530 20.082,26.414 C19.935,26.216 19.974,25.934 20.169,25.784 ZM22.615,23.720 C22.616,23.626 22.587,23.390 22.248,23.386 C21.909,23.383 21.589,23.627 21.539,23.975 C21.486,24.350 21.405,24.921 21.405,24.921 C22.036,24.481 22.612,24.084 22.615,23.720 ZM28.937,26.427 C29.168,26.429 29.447,26.271 29.501,25.877 L29.759,24.017 C29.810,23.646 29.693,23.461 29.357,23.457 C29.126,23.454 28.848,23.614 28.793,24.007 L28.536,25.867 C28.484,26.238 28.601,26.424 28.937,26.427 ZM25.265,26.390 C25.498,26.392 25.775,26.233 25.829,25.840 L26.087,23.980 C26.138,23.610 26.022,23.423 25.686,23.420 C25.454,23.418 25.176,23.576 25.121,23.970 L24.864,25.830 C24.812,26.201 24.930,26.387 25.265,26.390 Z"></path>
</svg>