<svg xmlns="http://www.w3.org/2000/svg" xmlns:xlink="http://www.w3.org/1999/xlink" width="50px" height="50px">
<path fill-rule="evenodd" opacity="0" fill="#ee162d" d="M0.000,0.000 L50.000,0.000 L50.000,50.000 L0.000,50.000 L0.000,0.000 Z"></path>
<path fill-rule="evenodd" fill="#ee162d" d="M33.921,23.411 L33.416,27.286 C33.330,27.877 32.898,28.514 32.145,28.514 C31.807,28.494 31.541,28.464 31.374,28.260 C31.227,28.079 31.185,27.778 31.246,27.339 L31.751,23.278 C31.834,22.451 32.465,22.080 33.052,22.080 C33.308,22.080 33.526,22.173 33.680,22.347 C33.892,22.584 33.975,22.953 33.921,23.411 M25.747,23.211 L25.269,27.328 C25.192,27.922 24.766,28.565 24.011,28.573 C23.678,28.557 23.410,28.529 23.242,28.328 C23.091,28.148 23.045,27.848 23.100,27.409 L23.631,23.288 C23.708,22.415 24.412,22.080 24.838,22.075 L24.868,22.074 C25.211,22.074 25.438,22.152 25.585,22.318 C25.747,22.504 25.800,22.796 25.747,23.211 M15.706,23.379 C15.795,22.752 16.333,22.078 17.221,22.078 L17.261,22.076 C17.333,22.076 18.001,22.071 18.076,22.675 C18.148,23.440 17.345,23.989 16.130,24.934 L15.844,25.158 L15.428,25.450 L15.706,23.379 ZM36.575,27.812 C36.419,27.443 36.064,27.185 35.713,27.185 C35.713,27.185 35.661,27.190 35.613,27.200 C35.566,27.210 35.361,27.268 35.361,27.268 L35.873,23.357 C35.982,22.514 35.751,21.719 35.220,21.116 C34.694,20.516 33.945,20.186 33.113,20.186 L33.090,20.186 C31.370,20.186 30.119,21.492 29.796,23.550 L29.796,23.551 C29.720,23.915 29.424,24.279 29.290,24.427 L27.314,26.418 L28.451,17.876 C28.485,17.615 28.415,17.357 28.256,17.149 C28.095,16.942 27.863,16.808 27.604,16.776 C27.562,16.770 27.519,16.767 27.477,16.767 C26.985,16.767 26.568,17.135 26.504,17.622 L26.142,20.413 L26.101,20.396 C25.761,20.261 25.398,20.193 25.026,20.193 C23.381,20.193 21.911,21.477 21.679,23.117 L21.590,23.633 C21.582,23.656 21.574,23.679 21.567,23.706 C21.494,23.969 21.330,24.201 21.265,24.289 L18.963,26.930 L18.734,27.164 C17.862,28.055 17.216,28.588 16.128,28.588 C15.392,28.588 15.309,27.832 15.309,27.832 L17.374,26.393 C18.753,25.321 20.218,24.325 19.999,22.468 C19.998,22.454 19.997,22.439 19.994,22.425 C19.655,20.628 18.135,20.193 17.262,20.193 L17.228,20.193 C15.534,20.198 14.132,21.429 13.893,23.120 L13.342,26.917 L12.753,27.331 C12.539,27.481 12.396,27.707 12.351,27.965 C12.306,28.224 12.364,28.484 12.516,28.698 C12.699,28.960 13.000,29.117 13.319,29.117 C13.416,29.117 13.513,29.102 13.606,29.073 L13.630,29.066 C13.630,29.066 13.733,29.427 13.894,29.623 C14.399,30.236 15.181,30.552 16.051,30.552 C18.017,30.552 19.029,29.594 20.099,28.498 L20.337,28.255 C20.347,28.248 20.356,28.237 20.365,28.227 L21.082,27.439 L21.071,27.540 C20.987,28.336 21.224,29.042 21.719,29.613 C22.215,30.184 22.925,30.516 23.718,30.547 L23.797,30.549 L23.792,30.555 C23.808,30.555 23.825,30.557 23.845,30.557 C24.911,30.557 25.800,30.273 26.481,29.713 C26.996,29.341 27.450,28.877 27.888,28.429 L28.126,28.185 C28.136,28.175 28.146,28.163 28.156,28.153 L28.195,28.111 L29.285,27.091 L29.236,27.426 C29.231,27.473 29.228,27.521 29.224,27.566 L29.222,27.619 L28.501,33.124 C28.467,33.384 28.536,33.640 28.697,33.849 C28.856,34.058 29.088,34.189 29.348,34.223 C29.390,34.230 29.434,34.231 29.476,34.231 C29.967,34.231 30.385,33.865 30.448,33.376 L30.844,30.331 L30.884,30.348 C31.226,30.487 31.590,30.558 31.969,30.558 L32.002,30.557 C32.421,30.555 32.838,30.465 33.240,30.294 C33.268,30.284 33.294,30.275 33.319,30.264 L36.097,29.080 C36.337,28.979 36.516,28.793 36.602,28.554 C36.688,28.321 36.678,28.058 36.575,27.812 "></path>
</svg>